<?xml version="1.0" encoding="UTF-8" standalone="no"?>
<!DOCTYPE svg PUBLIC "-//W3C//DTD SVG 1.1//EN" "http://www.w3.org/Graphics/SVG/1.1/DTD/svg11.dtd">
<svg width="100%" height="100%" viewBox="0 0 181 121" version="1.1" xmlns="http://www.w3.org/2000/svg" xmlns:xlink="http://www.w3.org/1999/xlink" xml:space="preserve" xmlns:serif="http://www.serif.com/" style="fill-rule:evenodd;clip-rule:evenodd;stroke-linejoin:round;stroke-miterlimit:2;">
    <g transform="matrix(1,0,0,1,-315.318,-313.489)">
        <g transform="matrix(1,0,0,1,-102.12,-141.179)">
            <g transform="matrix(0.393293,0,0,0.393293,295.835,313.921)">
                <g id="B1">
                    <g transform="matrix(0.964591,-0.199419,0.271781,0.591336,-53.2494,266.542)">
                        <path d="M335.473,496.618L531.552,334.223L711.384,496.514L700.289,535.891L512.479,733.388L324.981,535.565L335.473,496.618Z" style="fill:rgb(143,108,67);"/>
                    </g>
                    <g transform="matrix(0.96485,-0.191795,0.267253,0.593396,-51.1076,235.764)">
                        <path d="M520.586,374.034L700.661,536.281L512.479,733.388L324.298,536.281L520.586,374.034Z" style="fill:rgb(230,185,133);"/>
                    </g>
                    <g transform="matrix(0.512902,-8.32667e-17,-4.16334e-17,0.315539,341.547,289.442)">
                        <path d="M572.286,574.387C589.394,582.68 607.949,593.942 616.925,611.52C623.507,624.407 625.17,638.96 620.411,652.743C615.02,668.358 603.747,681.165 591.038,691.37C574.744,704.453 555.477,713.345 535.536,719.284C500.82,729.59 464.085,731.295 428.182,727.936C382.979,723.707 339.386,707.847 298.903,687.886C286.038,681.901 275.97,671.738 273.253,657.4C270.286,641.744 273.232,625.52 278.171,610.583C284.875,590.307 294.835,571.183 305.891,552.97C319.032,531.321 333.151,510.269 347.924,489.702C363.317,468.274 379.125,447.142 395.295,426.294C410.274,406.981 425.184,387.611 440.013,368.181C451.868,352.648 463.457,336.894 474.391,320.696C480.73,311.306 488.028,301.08 491.036,289.944C509.247,295.554 527.399,303.252 542.23,315.458C547.578,320.011 552.345,325.227 556.448,330.927C560.663,336.785 563.483,343.529 564.911,350.592C566.537,358.635 565.965,366.98 564.234,374.956C561.968,385.395 556.68,395.014 550.588,403.686C541.084,417.59 531.788,431.636 522.566,445.728C532.001,439.419 541.877,433.774 552.095,428.834C561.921,424.082 572.246,420.332 582.904,417.944C592.822,415.721 603.054,414.896 613.186,415.819C623.184,416.729 632.781,420.091 641.324,425.333C652.226,432.271 660.209,442.637 659.887,455.989C659.545,470.15 652.867,483.268 644.395,494.298C632.751,509.458 617.704,521.792 601.833,532.29C582.436,545.122 561.082,554.793 538.957,561.866C550.474,564.824 561.597,569.205 572.286,574.387ZM610.955,436.2C604.076,432.437 595.901,433.632 588.828,436.177C578.596,439.859 569.051,445.321 560.046,451.363C548.982,458.787 538.457,467 528.353,475.678C517.973,484.592 507.825,493.78 498.024,503.327C489.565,511.567 481.17,519.874 472.942,528.346C467.721,533.722 462.436,539.078 457.512,544.733C456.885,545.839 456.257,546.944 455.629,548.05C471.245,547.413 486.724,544.551 501.613,539.826C516.468,535.112 530.91,529.074 544.594,521.604C557.329,514.652 569.537,506.709 580.885,497.661C590.232,490.209 599.161,481.979 606.379,472.405C611.257,465.937 615.87,458.566 617.394,450.468C618.522,444.478 616.363,439.183 610.955,436.2ZM388.203,694.303C415.025,697.784 442.217,699.156 469.213,697.085C479.864,696.199 490.461,694.693 500.941,692.596C511.201,690.543 521.258,687.452 530.836,683.228C539.878,679.241 548.352,673.978 555.793,667.464C563.046,661.115 568.748,653.187 572.617,644.367C576.756,634.051 574.635,623.719 566.659,615.954C557.017,606.567 544.579,600.468 531.997,596.065C516,590.466 499.268,587.148 482.445,585.291C465.8,583.453 448.909,583.023 432.261,585.055C424.753,597.386 417.552,609.921 410.846,622.707C405.246,633.382 399.895,644.204 395.15,655.289C391.739,663.257 388.591,671.481 386.851,679.997C385.955,684.378 385.028,690.494 388.203,694.303Z" style="fill:rgb(143,108,67);"/>
                        <clipPath id="_clip1">
                            <path d="M572.286,574.387C589.394,582.68 607.949,593.942 616.925,611.52C623.507,624.407 625.17,638.96 620.411,652.743C615.02,668.358 603.747,681.165 591.038,691.37C574.744,704.453 555.477,713.345 535.536,719.284C500.82,729.59 464.085,731.295 428.182,727.936C382.979,723.707 339.386,707.847 298.903,687.886C286.038,681.901 275.97,671.738 273.253,657.4C270.286,641.744 273.232,625.52 278.171,610.583C284.875,590.307 294.835,571.183 305.891,552.97C319.032,531.321 333.151,510.269 347.924,489.702C363.317,468.274 379.125,447.142 395.295,426.294C410.274,406.981 425.184,387.611 440.013,368.181C451.868,352.648 463.457,336.894 474.391,320.696C480.73,311.306 488.028,301.08 491.036,289.944C509.247,295.554 527.399,303.252 542.23,315.458C547.578,320.011 552.345,325.227 556.448,330.927C560.663,336.785 563.483,343.529 564.911,350.592C566.537,358.635 565.965,366.98 564.234,374.956C561.968,385.395 556.68,395.014 550.588,403.686C541.084,417.59 531.788,431.636 522.566,445.728C532.001,439.419 541.877,433.774 552.095,428.834C561.921,424.082 572.246,420.332 582.904,417.944C592.822,415.721 603.054,414.896 613.186,415.819C623.184,416.729 632.781,420.091 641.324,425.333C652.226,432.271 660.209,442.637 659.887,455.989C659.545,470.15 652.867,483.268 644.395,494.298C632.751,509.458 617.704,521.792 601.833,532.29C582.436,545.122 561.082,554.793 538.957,561.866C550.474,564.824 561.597,569.205 572.286,574.387ZM610.955,436.2C604.076,432.437 595.901,433.632 588.828,436.177C578.596,439.859 569.051,445.321 560.046,451.363C548.982,458.787 538.457,467 528.353,475.678C517.973,484.592 507.825,493.78 498.024,503.327C489.565,511.567 481.17,519.874 472.942,528.346C467.721,533.722 462.436,539.078 457.512,544.733C456.885,545.839 456.257,546.944 455.629,548.05C471.245,547.413 486.724,544.551 501.613,539.826C516.468,535.112 530.91,529.074 544.594,521.604C557.329,514.652 569.537,506.709 580.885,497.661C590.232,490.209 599.161,481.979 606.379,472.405C611.257,465.937 615.87,458.566 617.394,450.468C618.522,444.478 616.363,439.183 610.955,436.2ZM388.203,694.303C415.025,697.784 442.217,699.156 469.213,697.085C479.864,696.199 490.461,694.693 500.941,692.596C511.201,690.543 521.258,687.452 530.836,683.228C539.878,679.241 548.352,673.978 555.793,667.464C563.046,661.115 568.748,653.187 572.617,644.367C576.756,634.051 574.635,623.719 566.659,615.954C557.017,606.567 544.579,600.468 531.997,596.065C516,590.466 499.268,587.148 482.445,585.291C465.8,583.453 448.909,583.023 432.261,585.055C424.753,597.386 417.552,609.921 410.846,622.707C405.246,633.382 399.895,644.204 395.15,655.289C391.739,663.257 388.591,671.481 386.851,679.997C385.955,684.378 385.028,690.494 388.203,694.303Z"/>
                        </clipPath>
                        <g clip-path="url(#_clip1)">
                            <g transform="matrix(1,0,0,1,0,19.8024)">
                                <path d="M572.286,574.387C589.394,582.68 607.949,593.942 616.925,611.52C623.507,624.407 625.17,638.96 620.411,652.743C615.02,668.358 603.747,681.165 591.038,691.37C574.744,704.453 555.477,713.345 535.536,719.284C500.82,729.59 464.085,731.295 428.182,727.936C382.979,723.707 339.386,707.847 298.903,687.886C286.038,681.901 275.97,671.738 273.253,657.4C270.286,641.744 273.232,625.52 278.171,610.583C284.875,590.307 294.835,571.183 305.891,552.97C319.032,531.321 333.151,510.269 347.924,489.702C363.317,468.274 379.125,447.142 395.295,426.294C410.274,406.981 425.184,387.611 440.013,368.181C451.868,352.648 463.457,336.894 474.391,320.696C480.73,311.306 488.028,301.08 491.036,289.944C509.247,295.554 527.399,303.252 542.23,315.458C547.578,320.011 552.345,325.227 556.448,330.927C560.663,336.785 563.483,343.529 564.911,350.592C566.537,358.635 565.965,366.98 564.234,374.956C561.968,385.395 556.68,395.014 550.588,403.686C542.1,416.104 531.708,412.757 523.457,425.333C522.47,426.838 523.552,444.222 522.566,445.728C532.001,439.419 541.877,433.774 552.095,428.834C561.921,424.082 572.246,420.332 582.904,417.944C592.822,415.721 603.054,414.896 613.186,415.819C623.184,416.729 632.781,420.091 641.324,425.333C652.226,432.271 660.209,442.637 659.887,455.989C659.545,470.15 652.867,483.268 644.395,494.298C632.751,509.458 617.704,521.792 601.833,532.29C583.394,544.488 559.914,535.095 538.957,542.063C537.868,542.425 540.05,561.516 538.957,561.866C550.474,564.824 561.597,569.205 572.286,574.387ZM610.955,436.2C604.076,432.437 595.901,433.632 588.828,436.177C578.596,439.859 569.051,445.321 560.046,451.363C548.982,458.787 538.457,467 528.353,475.678C517.973,484.592 507.825,493.78 498.024,503.327C489.565,511.567 486.009,509.654 477.781,518.125C472.56,523.502 460.553,522.593 455.629,528.248C455.002,529.353 456.257,546.944 455.629,548.05C471.245,547.413 486.724,544.551 501.613,539.826C516.468,535.112 530.91,529.074 544.594,521.604C557.329,514.652 569.537,506.709 580.885,497.661C590.232,490.209 599.161,481.979 606.379,472.405C611.257,465.937 615.87,458.566 617.394,450.468C618.522,444.478 616.363,439.183 610.955,436.2ZM388.203,694.303C415.025,697.784 442.217,699.156 469.213,697.085C479.864,696.199 490.461,694.693 500.941,692.596C511.201,690.543 521.258,687.452 530.836,683.228C539.878,679.241 548.352,673.978 555.793,667.464C563.046,661.115 568.748,653.187 572.617,644.367C576.756,634.051 574.635,623.719 566.659,615.954C557.017,606.567 544.579,600.468 531.997,596.065C516,590.466 499.268,587.148 482.445,585.291C465.8,583.453 448.909,583.023 432.261,585.055C424.753,597.386 417.552,609.921 410.846,622.707C405.246,633.382 399.895,644.204 395.15,655.289C391.739,663.257 387.739,658.948 385.999,667.464C385.103,671.845 385.028,690.494 388.203,694.303Z" style="fill:rgb(255,236,198);"/>
                            </g>
                        </g>
                    </g>
                </g>
                <g id="LOGO2" transform="matrix(0.693037,0,0,0.747546,116.961,-120.222)">
                    <g id="lettermark">
                        <g id="LOGO21" serif:id="LOGO2">
                            <path d="M303.383,905.435C317.604,909.87 329.185,906.409 341.271,898.179C345.197,895.506 357.639,889.736 351.182,884.086C351.371,883.958 351.56,883.831 351.749,883.703C359.968,884.074 366.488,879.967 373.099,875.471C378.818,871.583 390.686,863.778 379.575,858.803C377.822,858.018 375.991,857.407 374.156,856.846C366.423,854.484 358.691,852.121 350.958,849.759C326.43,865.614 301.903,881.469 277.375,897.324C286.044,900.027 294.713,902.731 303.383,905.435ZM299.332,896.162C307.842,890.573 316.352,884.984 324.862,879.395C327.806,880.304 330.749,881.214 333.693,882.123C342.795,884.936 332.537,890.498 328.416,893.259C322.487,897.23 316.426,901.481 309.1,899.201C305.844,898.188 302.588,897.175 299.332,896.162ZM331.784,874.849C339.78,869.598 347.777,864.346 355.773,859.094C358.552,859.945 361.331,860.796 364.109,861.648C365.48,862.067 368.547,862.994 367.532,865.018C365.861,868.14 361.53,870.198 358.818,872.013C352.743,876.078 347.332,879.645 339.964,877.372C337.237,876.531 334.51,875.69 331.784,874.849Z" style="fill:rgb(143,108,67);"/>
                            <path d="M372.611,927.025C391.942,909.282 411.399,891.676 430.977,874.207C423.587,871.949 416.197,869.691 408.807,867.433C381.508,882.67 354.124,897.756 326.66,912.694C331.281,914.135 335.902,915.576 340.523,917.017C347.781,912.856 355.034,908.684 362.282,904.504C366.429,905.79 370.576,907.077 374.724,908.363C369.286,913.101 363.857,917.848 358.436,922.604C363.161,924.077 367.886,925.551 372.611,927.025ZM382.099,902.517C378.383,901.367 374.668,900.217 370.953,899.068C381.04,893.354 391.116,887.621 401.181,881.868C404.365,880.068 407.561,878.286 410.692,876.392C411.039,876.498 411.386,876.605 411.733,876.711C409.305,878.715 406.971,880.828 404.624,882.925C397.1,889.438 389.591,895.969 382.099,902.517Z" style="fill:rgb(143,108,67);"/>
                            <path d="M438.663,916.157C437.125,917.593 435.365,918.809 433.691,920.074C428.552,923.954 423.262,927.839 417.279,930.321C413.975,931.622 410.724,931.389 407.38,930.348C405.192,929.667 401.809,928.747 403.441,925.924C408.345,918.132 418.482,912.539 425.632,907.257C433.447,901.484 441.529,894.452 450.617,890.671C453.984,889.215 457.134,889.202 460.62,890.27C462.656,890.893 466.198,892.14 464.277,894.764C462.573,896.964 460.526,898.858 458.309,900.53C457.138,901.413 455.979,902.342 454.71,903.085C458.911,904.377 463.112,905.668 467.313,906.96C468.559,906.186 469.714,905.282 470.877,904.391C474.434,901.666 478.671,898.496 480.312,894.145C482.678,888.231 471.978,885.517 468.435,884.435C460.633,882.052 453.045,880.874 445.162,883.39C433.052,887.148 422.541,896.011 412.514,903.301C404.723,908.966 389.71,916.423 386.156,926.651C384.172,932.833 395.212,935.296 398.809,936.419C406.574,938.841 414.553,940.571 422.477,937.964C432.033,934.927 440.098,928.632 447.956,922.607C451.519,919.876 455.06,917.108 458.488,914.208C450.573,911.767 442.659,909.326 434.745,906.885C432.194,908.783 429.643,910.682 427.092,912.58C430.949,913.773 434.806,914.965 438.663,916.157Z" style="fill:rgb(143,108,67);"/>
                            <path d="M476.126,959.307C497.265,941.997 518.405,924.687 539.545,907.377C535.117,906.024 530.689,904.671 526.261,903.318C516.997,910.776 507.732,918.233 498.468,925.69C492.764,923.931 487.061,922.172 481.357,920.414C490.752,913.012 500.146,905.611 509.541,898.21C505.064,896.842 500.587,895.474 496.11,894.106C474.19,911.081 452.27,928.056 430.35,945.031C435.068,946.503 439.787,947.974 444.505,949.446C454.33,941.706 464.154,933.967 473.978,926.227C479.716,928 485.453,929.774 491.191,931.547C481.503,939.345 471.814,947.143 462.126,954.941C466.793,956.397 471.459,957.852 476.126,959.307Z" style="fill:rgb(143,108,67);"/>
                            <path d="M500.581,966.934C521.304,949.445 542.026,931.956 562.749,914.467C558.272,913.099 553.795,911.731 549.318,910.363C528.354,927.749 507.39,945.134 486.426,962.52C491.144,963.991 495.863,965.463 500.581,966.934Z" style="fill:rgb(143,108,67);"/>
                            <path d="M530.712,952.301C528.217,953.931 525.775,955.625 523.504,957.562C520.281,960.312 515.392,963.925 515.726,968.717C516.02,973.822 524.412,975.603 528.053,976.739C534.679,978.806 542.3,980.785 549.22,978.869C556.129,976.948 561.682,972.74 566.952,968.003C569.776,965.465 575.496,961.686 575.932,957.364C576.092,955.103 574.543,953.617 573.051,952.101C570.136,949.135 566.548,946.818 563.835,943.657C562.668,942.36 561.654,941.314 562.213,939.553C563.309,936.746 566.513,934.765 568.654,932.909C571.27,930.643 574.028,928.233 577.464,927.371C579.795,926.858 581.914,927.313 584.177,928.006C585.537,928.423 588.318,928.924 588.793,930.651C589.517,933.21 585.536,936.011 584.027,937.345C582.322,938.852 580.581,940.375 578.637,941.571C582.388,942.725 586.14,943.879 589.892,945.033C592.73,943.545 595.203,941.351 597.572,939.225C600.048,937.002 604.924,933.245 603.872,929.301C602.55,924.768 594.888,923.055 591.144,921.911C585.642,920.231 580.082,918.937 574.309,919.696C567.716,920.61 562.533,924.09 557.53,928.358C554.535,930.913 544.601,937.456 547.884,942.911C550.418,947.123 554.793,950.192 558.224,953.602C559.435,954.811 560.79,956.073 559.995,957.856C558.732,960.359 556.358,962.166 554.302,963.984C551.229,966.701 548.017,969.811 543.998,971.059C541.023,971.884 538.322,971.387 535.417,970.482C533.83,969.989 531.023,969.313 530.978,967.199C531.077,964.258 535.181,961.554 537.027,959.955C538.707,958.5 540.434,957.069 542.33,955.901C538.458,954.701 534.585,953.501 530.712,952.301Z" style="fill:rgb(143,108,67);"/>
                            <path d="M604.944,999.481C623.888,981.228 642.832,962.975 661.775,944.722C657.347,943.369 652.92,942.016 648.492,940.663C640.179,948.529 631.866,956.395 623.553,964.261C617.85,962.502 612.146,960.743 606.443,958.985C614.886,951.175 623.329,943.365 631.772,935.555C627.295,934.187 622.818,932.819 618.341,931.451C598.617,949.369 578.893,967.287 559.169,985.206C563.887,986.677 568.605,988.149 573.324,989.62C582.153,981.453 590.982,973.286 599.811,965.119C605.549,966.892 611.286,968.666 617.024,970.439C608.331,978.664 599.638,986.89 590.945,995.116C595.611,996.571 600.278,998.026 604.944,999.481Z" style="fill:rgb(143,108,67);"/>
                            <path d="M658.382,1016.15C672.807,996.332 687.392,976.633 702.134,957.053C694.744,954.795 687.354,952.537 679.964,950.279C657.568,967.608 635.056,984.787 612.431,1001.82C617.052,1003.26 621.673,1004.7 626.294,1006.14C632.229,1001.41 638.156,996.668 644.076,991.918C648.223,993.205 652.37,994.491 656.517,995.777C652.404,1001.09 648.3,1006.4 644.207,1011.73C648.932,1013.2 653.657,1014.67 658.382,1016.15ZM662.215,989.211C658.499,988.061 654.784,986.911 651.069,985.761C659.332,979.262 667.58,972.744 675.813,966.206C678.424,964.158 681.052,962.128 683.586,959.984C683.933,960.091 684.281,960.197 684.628,960.303C682.76,962.563 681.017,964.921 679.256,967.264C673.556,974.564 667.875,981.88 662.215,989.211Z" style="fill:rgb(143,108,67);"/>
                            <path d="M709.317,1032.03C722.869,1011.85 736.586,991.778 750.465,971.819C743.075,969.561 735.685,967.303 728.295,965.045C706.774,982.747 685.129,1000.3 663.366,1017.7C667.987,1019.14 672.609,1020.58 677.23,1022.02C682.928,1017.19 688.619,1012.35 694.302,1007.5C698.45,1008.78 702.597,1010.07 706.744,1011.36C702.866,1016.77 698.999,1022.19 695.143,1027.61C699.868,1029.09 704.593,1030.56 709.317,1032.03ZM712.142,1004.66C708.427,1003.51 704.712,1002.36 700.996,1001.21C708.935,994.574 716.857,987.916 724.763,981.239C727.272,979.146 729.799,977.071 732.227,974.884C732.574,974.99 732.921,975.096 733.268,975.203C731.5,977.509 729.862,979.91 728.206,982.296C722.831,989.737 717.476,997.193 712.142,1004.66Z" style="fill:rgb(143,108,67);"/>
                            <path d="M761.489,1048.3C777.764,1028.9 794.039,1009.5 810.315,990.105C806.281,988.872 802.247,987.64 798.213,986.407C791.895,993.803 785.577,1001.2 779.259,1008.6C777.247,1010.95 775.201,1013.29 773.332,1015.76C773.079,1015.68 772.826,1015.6 772.573,1015.52C777.5,1005.16 779.584,992.7 782.975,981.752C777.955,980.218 772.934,978.684 767.914,977.15C750.878,996.222 733.841,1015.3 716.804,1034.37C721.003,1035.68 725.202,1036.99 729.402,1038.3C737.913,1028.6 746.424,1018.9 754.935,1009.21C758.12,1005.58 761.324,1001.96 764.384,998.225C764.635,998.302 764.885,998.379 765.136,998.456C759.912,1013.68 757.419,1030.32 754.335,1046.07C756.72,1046.82 759.105,1047.56 761.489,1048.3Z" style="fill:rgb(143,108,67);"/>
                        </g>
                    </g>
                </g>
            </g>
        </g>
    </g>
</svg>
